name C:\Users\antoi\Documents\MyRepositories\upper-imu-dc\OpenSim\subject0\MA\train_motion_filt.mot
datacolumns 10
datarows 52
range 22.33000000 22.84000000
endheader 
time	clav_prot	clav_elev	scapula_abduction	scapula_elevation	scapula_upward_rot	scapula_winging	plane_elv	shoulder_elv	axial_rot	
         22.33000000	        -18.72155979	         -4.50384551	         -5.56067948	         -4.04518039	         13.29275134	          4.99544689	        -16.38505116	         15.01690379	         40.32509416	
         22.34000000	        -18.71082088	         -4.49582033	         -5.53273000	         -4.04345102	         13.31173483	          4.98645561	        -16.44601495	         14.98899859	         40.61681807	
         22.35000000	        -18.70321355	         -4.49548806	         -5.51252493	         -4.04595760	         13.32375303	          4.98214690	        -16.47054943	         14.97008462	         40.74459153	
         22.36000000	        -18.69965656	         -4.50358880	         -5.50195364	         -4.05310393	         13.32801125	          4.98309802	        -16.47140615	         14.96187995	         40.73110964	
         22.37000000	        -18.70032185	         -4.51841250	         -5.49988375	         -4.06441100	         13.32765237	          4.98800483	        -16.46852921	         14.96142364	         40.63647115	
         22.38000000	        -18.70485022	         -4.53647823	         -5.50383035	         -4.07839538	         13.32726443	          4.99455686	        -16.47553311	         14.96490387	         40.51093894	
         22.39000000	        -18.71255919	         -4.55379350	         -5.51130575	         -4.09296625	         13.33067591	          5.00041861	        -16.49670690	         14.96877833	         40.37954186	
         22.40000000	        -18.72263078	         -4.56609188	         -5.52001547	         -4.10565030	         13.34108473	          5.00330252	        -16.53247547	         14.96777634	         40.26686213	
         22.41000000	        -18.73444692	         -4.56942543	         -5.52816303	         -4.11412816	         13.36130555	          5.00115439	        -16.58394301	         14.95447405	         40.21966945	
         22.42000000	        -18.74787380	         -4.56240577	         -5.53572017	         -4.11738366	         13.39154470	          4.99347145	        -16.64945830	         14.92396261	         40.28456312	
         22.43000000	        -18.76285339	         -4.54731381	         -5.54433016	         -4.11613788	         13.42789386	          4.98196258	        -16.72160184	         14.87791418	         40.47674345	
         22.44000000	        -18.77858627	         -4.52821059	         -5.55503638	         -4.11193519	         13.46453157	          4.96925873	        -16.79136583	         14.82319120	         40.77744328	
         22.45000000	        -18.79316306	         -4.50792746	         -5.56624368	         -4.10576085	         13.49732252	          4.95699520	        -16.85364707	         14.76773225	         41.14848986	
         22.46000000	        -18.80383690	         -4.48618804	         -5.57372999	         -4.09702372	         13.52537051	          4.94487509	        -16.90877345	         14.71742766	         41.55100612	
         22.47000000	        -18.80805365	         -4.46011498	         -5.57318127	         -4.08361771	         13.54956020	          4.93135999	        -16.95829535	         14.67619807	         41.94821940	
         22.48000000	        -18.80478271	         -4.42707720	         -5.56332820	         -4.06351049	         13.57002691	          4.91541161	        -16.99861083	         14.64854050	         42.28624797	
         22.49000000	        -18.79479284	         -4.38756291	         -5.54602371	         -4.03683706	         13.58569847	          4.89756111	        -17.02223374	         14.63954211	         42.49676524	
         22.50000000	        -18.77989708	         -4.34509332	         -5.52388490	         -4.00626766	         13.59610983	          4.87931547	        -17.02590009	         14.65091569	         42.53861041	
         22.51000000	        -18.76233122	         -4.30373874	         -5.49917693	         -3.97534686	         13.60244942	          4.86201174	        -17.01434566	         14.67827814	         42.43041945	
         22.52000000	        -18.74426127	         -4.26666875	         -5.47377743	         -3.94713833	         13.60671997	          4.84648354	        -16.99771117	         14.71271677	         42.24175805	
         22.53000000	        -18.72720330	         -4.23630739	         -5.44868881	         -3.92405959	         13.61076885	          4.83325768	        -16.98692324	         14.74469501	         42.05439978	
         22.54000000	        -18.71191156	         -4.21426965	         -5.42396890	         -3.90777847	         13.61609983	          4.82256880	        -16.99034966	         14.76718983	         41.92590550	
         22.55000000	        -18.69862488	         -4.20076617	         -5.39916383	         -3.89883490	         13.62411632	          4.81415919	        -17.01480896	         14.77588555	         41.88713709	
         22.56000000	        -18.68712690	         -4.19439764	         -5.37341657	         -3.89650856	         13.63620304	          4.80720869	        -17.06719019	         14.76800496	         41.96143576	
         22.57000000	        -18.67665045	         -4.19296769	         -5.34552871	         -3.89924734	         13.65300471	          4.80075301	        -17.15149799	         14.74283042	         42.16847949	
         22.58000000	        -18.66584343	         -4.19476448	         -5.31416853	         -3.90538945	         13.67344614	          4.79431894	        -17.26482120	         14.70336806	         42.50896163	
         22.59000000	        -18.65322008	         -4.19921904	         -5.27848268	         -3.91370035	         13.69476936	          4.78818870	        -17.39643584	         14.65714570	         42.94579498	
         22.60000000	        -18.63817963	         -4.20665087	         -5.23930377	         -3.92351709	         13.71362435	          4.78321077	        -17.53017946	         14.61500221	         43.40002450	
         22.61000000	        -18.62169126	         -4.21735065	         -5.19981696	         -3.93441855	         13.72735422	          4.78030553	        -17.64949710	         14.58733662	         43.77796355	
         22.62000000	        -18.60603722	         -4.23060857	         -5.16483842	         -3.94569253	         13.73485215	          4.77990903	        -17.74167314	         14.58027120	         44.00630254	
         22.63000000	        -18.59392920	         -4.24465118	         -5.13923089	         -3.95626288	         13.73664640	          4.78178708	        -17.79772987	         14.59521371	         44.03789554	
         22.64000000	        -18.58754083	         -4.25753550	         -5.12629680	         -3.96518853	         13.73438691	          4.78528057	        -17.81120387	         14.63035173	         43.84706605	
         22.65000000	        -18.58789397	         -4.26805329	         -5.12681862	         -3.97217622	         13.73028362	          4.78962506	        -17.78004019	         14.68107508	         43.44310710	
         22.66000000	        -18.59461038	         -4.27608859	         -5.13887446	         -3.97769103	         13.72653325	          4.79416548	        -17.70833333	         14.74125316	         42.87171319	
         22.67000000	        -18.60585452	         -4.28232187	         -5.15819706	         -3.98255288	         13.72465315	          4.79842444	        -17.60383654	         14.80649513	         42.18592442	
         22.68000000	        -18.61871383	         -4.28723407	         -5.17895803	         -3.98724676	         13.72568139	          4.80180745	        -17.47657405	         14.87424320	         41.43733353	
         22.69000000	        -18.63005842	         -4.29026206	         -5.19485784	         -3.99159744	         13.73123075	          4.80321768	        -17.34161936	         14.93977837	         40.70200055	
         22.70000000	        -18.63746715	         -4.29014671	         -5.20074789	         -3.99504949	         13.74335227	          4.80134951	        -17.21776968	         14.99531759	         40.07939380	
         22.71000000	        -18.63986924	         -4.28589447	         -5.19447905	         -3.99701381	         13.76291291	          4.79549980	        -17.12209823	         15.03335486	         39.65613050	
         22.72000000	        -18.63756618	         -4.27735957	         -5.17759969	         -3.99695970	         13.78823568	          4.78609498	        -17.06919665	         15.04883812	         39.48525777	
         22.73000000	        -18.63170618	         -4.26551123	         -5.15422322	         -3.99465624	         13.81535068	          4.77462470	        -17.07251312	         15.03940026	         39.58705715	
         22.74000000	        -18.62365260	         -4.25248216	         -5.12854872	         -3.99077818	         13.84031206	          4.76296763	        -17.14072709	         15.00560244	         39.94942345	
         22.75000000	        -18.61434608	         -4.24096765	         -5.10259262	         -3.98698603	         13.86140007	          4.75254354	        -17.27125303	         14.95157915	         40.52379156	
         22.76000000	        -18.60377196	         -4.23307877	         -5.07574158	         -3.98492814	         13.87875841	          4.74396272	        -17.44788713	         14.88551503	         41.22580900	
         22.77000000	        -18.59102222	         -4.22963295	         -5.04585790	         -3.98533584	         13.89298482	          4.73717428	        -17.64669850	         14.81821984	         41.95390020	
         22.78000000	        -18.57512839	         -4.23043478	         -5.01098521	         -3.98814356	         13.90459930	          4.73182492	        -17.84614738	         14.75959895	         42.62023882	
         22.79000000	        -18.55594462	         -4.23500273	         -4.97074528	         -3.99308085	         13.91400710	          4.72763732	        -18.03236521	         14.71597601	         43.16855063	
         22.80000000	        -18.53413039	         -4.24296803	         -4.92611172	         -4.00002051	         13.92166958	          4.72448764	        -18.19748756	         14.69002166	         43.56967267	
         22.81000000	        -18.51038678	         -4.25377858	         -4.87783712	         -4.00884636	         13.92862058	          4.72205893	        -18.33749448	         14.68146234	         43.81395372	
         22.82000000	        -18.48507629	         -4.26612482	         -4.82577975	         -4.01905758	         13.93670913	          4.71954076	        -18.45175415	         14.68737343	         43.91087976	
         22.83000000	        -18.45875609	         -4.27807149	         -4.77032791	         -4.02966758	         13.94771521	          4.71598301	        -18.54012721	         14.70365847	         43.88021774	
         22.84000000	        -18.43301529	         -4.28790707	         -4.71451764	         -4.03952087	         13.96190336	          4.71106457	        -18.59881378	         14.72760986	         43.73146834	
